<svg width="600" height="600" viewBox="0 0 600 600" fill="none" xmlns="http://www.w3.org/2000/svg">
<g clip-path="url(#clip0_2306_1666)">
<rect width="600" height="600" rx="300" fill="#142334"/>
<g filter="url(#filter0_f_2306_1666)">
<ellipse rx="166.312" ry="126.397" transform="matrix(0.5 -0.866025 -0.866025 -0.5 47.3731 195.066)" fill="#309AE6"/>
<ellipse rx="171.622" ry="130.432" transform="matrix(1 -5.56119e-08 -5.56119e-08 -1 342.657 358.62)" fill="#E63330"/>
</g>
<g clip-path="url(#clip1_2306_1666)">
<path d="M298.229 322.009L276.885 263.725C274.264 256.574 267.471 251.816 259.868 251.816H233.843C223.834 251.816 215.714 259.951 215.714 269.977V339.16C215.714 344.696 220.197 349.186 225.722 349.186H227.395C232.92 349.186 237.403 344.696 237.403 339.16V279.606C237.403 276.256 240.118 273.535 243.463 273.535H252.997C255.532 273.535 257.799 275.116 258.678 277.491L280.178 335.49C283.229 343.711 291.057 349.169 299.815 349.169H299.97C308.66 349.169 316.453 343.798 319.547 335.662L341.702 277.439C342.598 275.081 344.848 273.527 347.366 273.527H356.564C359.908 273.527 362.624 276.247 362.624 279.598V339.151C362.624 344.687 367.106 349.178 372.632 349.178H374.305C379.83 349.178 384.313 344.687 384.313 339.151V269.969C384.313 259.942 376.192 251.807 366.184 251.807H340.728C333.211 251.807 326.47 256.453 323.789 263.492L301.479 322.018C300.91 323.512 298.798 323.494 298.246 322L298.229 322.009Z" fill="white"/>
<path d="M177.462 415.233C176.833 414.628 176.514 413.998 176.506 413.324C176.497 412.651 176.79 412.003 177.393 411.372L189.893 398.237C190.505 397.589 191.16 397.27 191.841 397.278C192.522 397.287 193.203 397.607 193.859 398.237C194.41 398.764 194.746 399.291 194.867 399.809C194.988 400.327 194.945 400.966 194.755 401.709L191.143 415.699L190.316 414.904L204.065 410.595C204.815 410.379 205.453 410.319 205.979 410.414C206.505 410.509 207.039 410.82 207.591 411.346C208.22 411.951 208.548 412.581 208.556 413.246C208.565 413.911 208.272 414.568 207.66 415.215L195.16 428.351C194.557 428.981 193.928 429.318 193.264 429.344C192.6 429.378 191.953 429.085 191.307 428.463C190.678 427.858 190.359 427.228 190.35 426.554C190.35 425.881 190.635 425.233 191.238 424.603L198.988 416.459L199.488 416.934L189.376 419.931C188.824 420.069 188.341 420.103 187.936 420.043C187.531 419.982 187.117 419.758 186.712 419.369C186.316 418.989 186.074 418.601 185.988 418.186C185.902 417.772 185.919 417.297 186.048 416.753L188.548 406.441L189.091 406.959L181.316 415.129C180.712 415.759 180.083 416.088 179.419 416.122C178.755 416.157 178.1 415.863 177.462 415.241V415.233Z" fill="white"/>
<path d="M205.375 439.207C204.798 438.853 204.393 438.429 204.168 437.92C203.944 437.41 203.927 436.892 204.117 436.357C204.306 435.821 204.72 435.338 205.341 434.897L221.358 424.12C222.133 423.593 222.866 423.316 223.564 423.282C224.263 423.247 224.927 423.42 225.556 423.8C226.185 424.18 226.642 424.69 226.909 425.311C227.176 425.933 227.271 426.719 227.185 427.66L225.073 446.875C225.013 447.653 224.789 448.257 224.409 448.689C224.03 449.121 223.573 449.354 223.039 449.388C222.496 449.414 221.952 449.268 221.392 448.922C220.651 448.473 220.177 447.955 219.978 447.376C219.78 446.798 219.746 446.038 219.884 445.105L220.521 440.64L221.616 443.257L210.108 436.279L212.953 436.055L209.298 438.688C208.513 439.233 207.841 439.561 207.28 439.682C206.72 439.803 206.082 439.647 205.358 439.207H205.375ZM222.108 429.396L214.185 435.182L214.22 433.369L222.349 438.3L220.754 439.172L222.168 429.439L222.116 429.405L222.108 429.396Z" fill="white"/>
<path d="M239.702 457.005C238.806 456.66 238.211 456.142 237.918 455.459C237.625 454.777 237.651 453.983 237.995 453.085L243.53 438.714L238.745 436.866C237.995 436.573 237.495 436.158 237.254 435.605C237.013 435.053 237.03 434.414 237.314 433.68C237.607 432.928 238.021 432.436 238.564 432.203C239.107 431.97 239.754 431.995 240.513 432.289L255.676 438.153C256.426 438.447 256.926 438.861 257.176 439.397C257.426 439.932 257.4 440.58 257.116 441.34C256.831 442.074 256.417 442.557 255.866 442.799C255.314 443.041 254.667 443.024 253.917 442.73L249.133 440.882L243.599 455.252C243.254 456.15 242.754 456.755 242.09 457.074C241.435 457.394 240.633 457.368 239.702 457.005V457.005Z" fill="white"/>
<path d="M269.15 465.356C268.211 465.183 267.53 464.778 267.116 464.164C266.702 463.551 266.581 462.765 266.754 461.815L269.564 446.668L264.521 445.727C263.728 445.58 263.168 445.26 262.823 444.759C262.487 444.267 262.383 443.628 262.53 442.86C262.676 442.065 262.995 441.504 263.487 441.175C263.978 440.847 264.624 440.752 265.409 440.899L281.391 443.879C282.184 444.025 282.753 444.345 283.09 444.829C283.434 445.312 283.529 445.951 283.383 446.746C283.236 447.514 282.917 448.076 282.426 448.412C281.934 448.749 281.288 448.844 280.495 448.697L275.452 447.756L272.642 462.904C272.469 463.845 272.081 464.536 271.495 464.968C270.909 465.399 270.116 465.529 269.133 465.339L269.15 465.356Z" fill="white"/>
<path d="M293.873 467.826C292.847 467.809 292.08 467.532 291.554 466.988C291.029 466.444 290.779 465.676 290.796 464.674L291.072 447.834C291.089 446.832 291.365 446.063 291.908 445.545C292.451 445.018 293.235 444.768 294.253 444.785L305.321 444.967C306.106 444.975 306.692 445.183 307.071 445.58C307.451 445.977 307.64 446.547 307.632 447.29C307.623 448.05 307.416 448.637 307.019 449.034C306.623 449.431 306.028 449.621 305.244 449.613L296.787 449.475L296.718 453.853L304.451 453.974C305.209 453.983 305.787 454.19 306.183 454.587C306.58 454.984 306.769 455.563 306.761 456.332C306.752 457.092 306.537 457.67 306.132 458.059C305.726 458.447 305.14 458.629 304.373 458.62L296.64 458.499L296.563 463.24L305.02 463.379C305.804 463.396 306.39 463.603 306.769 464.009C307.157 464.415 307.338 464.993 307.33 465.736C307.321 466.496 307.114 467.075 306.718 467.463C306.321 467.852 305.726 468.033 304.951 468.025L293.882 467.843L293.873 467.826Z" fill="white"/>
<path d="M322.725 466.798C321.786 466.962 321.01 466.824 320.398 466.393C319.786 465.961 319.407 465.27 319.243 464.32L316.277 447.307C316.105 446.34 316.243 445.554 316.674 444.949C317.105 444.345 317.794 443.956 318.743 443.792L326.656 442.41C329.225 441.961 331.329 442.238 332.949 443.248C334.57 444.258 335.579 445.882 335.966 448.11C336.216 449.552 336.122 450.856 335.673 452.031C335.225 453.205 334.458 454.181 333.363 454.958C332.277 455.736 330.863 456.28 329.122 456.582L329.277 455.96L330.82 455.693C331.742 455.528 332.596 455.606 333.38 455.926C334.165 456.245 334.872 456.807 335.501 457.627L337.613 460.244C338.061 460.805 338.328 461.384 338.415 461.98C338.492 462.575 338.346 463.102 337.975 463.551C337.604 464 337.001 464.303 336.156 464.449C335.32 464.596 334.613 464.544 334.027 464.294C333.441 464.044 332.88 463.586 332.346 462.929L328.484 458.059C328.148 457.636 327.76 457.359 327.329 457.247C326.898 457.135 326.432 457.126 325.915 457.212L324.148 457.523L325.156 463.292C325.32 464.233 325.199 465.019 324.803 465.633C324.398 466.246 323.708 466.634 322.725 466.807V466.798ZM323.424 453.326L327.346 452.635C328.484 452.437 329.311 452.057 329.829 451.504C330.346 450.951 330.527 450.2 330.363 449.25C330.208 448.352 329.786 447.722 329.105 447.359C328.424 447.005 327.518 446.927 326.38 447.126L322.458 447.817L323.415 453.326H323.424Z" fill="white"/>
<path d="M354.07 459.035C353.113 459.397 352.294 459.415 351.605 459.104C350.915 458.793 350.398 458.162 350.053 457.221L344.165 441.443C343.812 440.502 343.795 439.69 344.114 438.999C344.424 438.308 345.062 437.79 346.019 437.427L356.389 433.55C357.122 433.274 357.743 433.256 358.243 433.481C358.743 433.705 359.131 434.172 359.389 434.871C359.656 435.588 359.674 436.201 359.449 436.719C359.225 437.238 358.743 437.626 358.01 437.902L350.088 440.865L351.622 444.967L358.872 442.255C359.587 441.987 360.199 441.97 360.717 442.195C361.234 442.419 361.622 442.894 361.889 443.602C362.156 444.319 362.165 444.932 361.932 445.442C361.691 445.951 361.217 446.34 360.501 446.608L353.251 449.319L354.906 453.758L362.829 450.796C363.561 450.52 364.182 450.502 364.691 450.744C365.199 450.986 365.579 451.452 365.837 452.143C366.104 452.86 366.122 453.465 365.889 453.974C365.656 454.475 365.173 454.872 364.441 455.14L354.07 459.017V459.035Z" fill="white"/>
<path d="M387.009 443.904C385.578 444.777 384.199 445.364 382.888 445.666C381.569 445.968 380.311 445.986 379.121 445.718C377.932 445.45 376.811 444.889 375.768 444.025C374.725 443.17 373.768 442.022 372.897 440.588L367.458 431.615C366.94 430.76 366.768 429.975 366.949 429.266C367.13 428.558 367.63 427.954 368.449 427.453C369.285 426.943 370.052 426.771 370.759 426.943C371.466 427.116 372.07 427.626 372.595 428.489L378.069 437.514C378.94 438.947 379.914 439.837 380.983 440.174C382.052 440.519 383.199 440.32 384.406 439.578C385.595 438.852 386.285 437.937 386.474 436.823C386.664 435.709 386.328 434.439 385.457 433.006L379.983 423.981C379.466 423.126 379.285 422.34 379.457 421.641C379.63 420.941 380.121 420.337 380.94 419.836C381.759 419.335 382.518 419.18 383.207 419.352C383.897 419.534 384.509 420.043 385.026 420.907L390.466 429.88C391.629 431.797 392.276 433.61 392.397 435.303C392.517 436.996 392.129 438.567 391.216 440.001C390.302 441.434 388.897 442.73 387 443.887L387.009 443.904Z" fill="white"/>
<path d="M408.715 428.455C408.086 429.059 407.431 429.344 406.767 429.318C406.095 429.292 405.465 428.964 404.862 428.334L392.362 415.198C391.75 414.551 391.457 413.886 391.5 413.203C391.535 412.521 391.888 411.856 392.552 411.226C393.104 410.699 393.638 410.388 394.164 410.293C394.69 410.198 395.319 410.267 396.052 410.5L409.827 414.784L409 415.578L405.362 401.614C405.181 400.854 405.146 400.215 405.267 399.688C405.388 399.17 405.724 398.643 406.276 398.116C406.905 397.512 407.552 397.218 408.215 397.236C408.879 397.253 409.517 397.581 410.129 398.229L422.629 411.364C423.232 411.994 423.525 412.642 423.525 413.307C423.525 413.972 423.198 414.611 422.56 415.224C421.93 415.829 421.284 416.114 420.612 416.088C419.939 416.062 419.31 415.734 418.706 415.103L410.957 406.96L411.457 406.485L413.957 416.744C414.069 417.306 414.086 417.781 414 418.195C413.913 418.61 413.672 418.998 413.267 419.396C412.87 419.775 412.465 419.991 412.051 420.06C411.638 420.13 411.155 420.086 410.62 419.931L400.466 416.934L401.009 416.416L408.784 424.586C409.388 425.216 409.681 425.864 409.681 426.529C409.681 427.194 409.353 427.833 408.715 428.446V428.455Z" fill="white"/>
<path d="M429.479 396.104L423.238 391.475C420.281 389.281 419.549 385.145 421.6 382.096C437.876 357.898 446.445 329.762 446.445 300.313C446.445 219.412 380.748 153.597 299.991 153.597C219.235 153.597 153.547 219.412 153.547 300.313C153.547 329.762 162.116 357.898 178.391 382.096C180.443 385.153 179.71 389.29 176.753 391.475L170.512 396.104C167.357 398.444 162.883 397.675 160.685 394.411C141.892 366.577 131.996 334.201 131.996 300.313C131.996 207.511 207.364 132.007 300 132.007C392.636 132.007 468.004 207.511 468.004 300.313C468.004 334.201 458.108 366.586 439.315 394.411C437.117 397.667 432.643 398.444 429.488 396.104H429.479Z" fill="white"/>
</g>
</g>
<defs>
<filter id="filter0_f_2306_1666" x="-417.847" y="-416.252" width="1369.77" height="1414.07" filterUnits="userSpaceOnUse" color-interpolation-filters="sRGB">
<feFlood flood-opacity="0" result="BackgroundImageFix"/>
<feBlend mode="normal" in="SourceGraphic" in2="BackgroundImageFix" result="shape"/>
<feGaussianBlur stdDeviation="163.873" result="effect1_foregroundBlur_2306_1666"/>
</filter>
<clipPath id="clip0_2306_1666">
<rect width="600" height="600" rx="300" fill="white"/>
</clipPath>
<clipPath id="clip1_2306_1666">
<rect width="336" height="336" fill="white" transform="translate(132 132)"/>
</clipPath>
</defs>
</svg>
